<?xml version="1.0" standalone="no"?>
<!DOCTYPE svg PUBLIC "-//W3C//DTD SVG 20010904//EN"
 "http://www.w3.org/TR/2001/REC-SVG-20010904/DTD/svg10.dtd">
<svg version="1.0" xmlns="http://www.w3.org/2000/svg"
 width="178.000000pt" height="178.000000pt" viewBox="0 0 178.000000 178.000000"
 preserveAspectRatio="xMidYMid meet">
<metadata>
Created by potrace 1.11, written by Peter Selinger 2001-2013
</metadata>
<g transform="translate(0.000000,178.000000) scale(0.100000,-0.100000)"
fill="#000000" stroke="none">
<path d="M810 1660 c0 -5 28 -55 61 -112 34 -57 72 -121 84 -143 13 -22 111
-190 219 -374 108 -183 196 -335 196 -338 0 -2 11 -21 25 -41 14 -20 25 -39
25 -42 0 -3 -170 -6 -377 -5 -325 0 -380 -2 -389 -15 -12 -16 -124 -209 -124
-213 0 -5 1228 -2 1233 3 2 3 -163 293 -368 645 l-372 640 -106 2 c-59 0 -107
-3 -107 -7z"/>
<path d="M747 1618 c-8 -12 -153 -261 -322 -553 -169 -291 -334 -576 -367
-632 l-59 -102 39 -73 c22 -40 45 -84 52 -97 11 -22 15 -18 74 85 58 101 234
405 349 604 28 47 62 106 76 131 151 266 181 312 181 280 0 -5 19 -40 42 -77
23 -38 55 -94 72 -125 17 -30 76 -135 131 -232 l100 -176 113 -1 c61 0 112 2
112 4 0 2 -27 51 -61 108 -34 57 -71 121 -84 143 -12 22 -104 180 -205 350
-100 171 -191 326 -202 345 -11 19 -22 37 -23 38 -2 2 -10 -7 -18 -20z"/>
<path d="M665 1023 c-50 -86 -102 -177 -116 -202 -40 -70 -228 -394 -238 -411
-41 -67 -161 -281 -161 -287 0 -5 346 -9 782 -9 l782 1 32 100 c18 55 33 103
33 107 1 5 -298 9 -664 10 l-664 3 191 325 c104 179 194 334 200 345 7 16 1
35 -31 89 -22 38 -44 73 -48 77 -5 5 -49 -62 -98 -148z"/>
</g>
</svg>
